<svg width="622" height="374" viewBox="0 0 622 374" fill="none" xmlns="http://www.w3.org/2000/svg">
<path d="M591.758 29.2765C592.589 26.7274 590.338 23.5812 586.666 22.455C583.869 21.5973 579.209 22.2614 578.563 24.8654C578.21 26.2891 580.012 30.4684 583.655 31.6865C587.299 32.9046 590.926 31.8256 591.758 29.2765Z" fill="black" fill-opacity="0.05"/>
<path d="M589.875 37.623C587.827 37.4692 584.167 39.364 584.186 41.5535C584.198 43.062 586.699 45.5329 589.829 45.5518C592.958 45.5703 595.505 43.8107 595.518 41.6213C595.531 39.4318 592.996 37.8579 589.875 37.623Z" fill="black" fill-opacity="0.05"/>
<path d="M617.375 22.3222C614.232 20.4917 612.281 21.5868 610.341 22.5043C608.527 23.3624 606.48 23.5074 604.549 22.9723C601.129 22.0251 597.628 23.455 595.728 26.3697C593.828 29.2845 593.906 33.1052 596.111 35.9168C597.355 37.5047 598.029 39.4666 597.962 41.4928C597.892 43.6596 597.664 45.9067 600.562 48.1126C604.139 50.8351 609.322 49.5663 611.787 45.7851C612.482 44.7197 612.898 43.5509 613.055 42.3653C613.226 41.0818 613.67 39.8675 614.349 38.813C615.04 37.7661 615.968 36.8749 617.067 36.2121C618.082 35.5998 618.98 34.7521 619.674 33.6868C622.139 29.9063 621.253 24.5815 617.375 22.3222Z" fill="black" fill-opacity="0.05"/>
<path d="M596.833 21.4638C598.814 19.6791 598.353 15.8801 595.801 12.9776C593.251 10.0754 588.747 10.0608 587.596 10.9542C585.492 12.5879 586.74 17.1814 588.628 19.44C591.107 22.4058 594.852 23.2485 596.833 21.4638Z" fill="black" fill-opacity="0.05"/>
<path d="M609.513 20.0642C611.493 19.183 612.077 16.1177 610.818 13.2169C609.558 10.3165 606.326 8.97327 604.953 9.56048C602.961 10.4126 602.696 14.5661 603.649 16.4074C605.1 19.2148 607.534 20.9454 609.513 20.0642Z" fill="black" fill-opacity="0.05"/>
<path d="M550.494 23.0598C553.176 23.5788 556.048 20.8315 556.693 16.8846C557.184 13.8783 555.892 9.14987 553.179 8.8304C551.697 8.65564 547.722 11.0761 546.98 15.0055C546.239 18.9346 547.812 22.5407 550.494 23.0598Z" fill="black" fill-opacity="0.05"/>
<path d="M538.538 28.6043C540.748 28.325 541.997 25.4942 541.817 22.2366C541.698 20.0995 539.298 16.5686 537.093 16.88C535.573 17.0946 533.415 20.0104 533.814 23.2478C534.213 26.4854 536.328 28.8836 538.538 28.6043Z" fill="black" fill-opacity="0.05"/>
<path d="M558.555 35.4371C559.054 31.7744 557.144 28.3473 553.951 26.7723C550.758 25.1976 546.915 25.788 544.374 28.443C542.939 29.9425 541.05 30.8999 538.997 31.1023C536.803 31.3186 534.506 31.384 532.669 34.6741C530.401 38.7353 532.373 43.9244 536.516 45.9674C537.683 46.5431 538.917 46.8178 540.134 46.822C541.451 46.8262 542.735 47.1236 543.889 47.685C545.038 48.2593 546.06 49.0992 546.876 50.1467C547.629 51.1139 548.604 51.929 549.771 52.5043C553.913 54.5473 559.165 52.9206 560.925 48.6095C562.351 45.1163 560.987 43.2453 559.801 41.3624C558.693 39.6014 558.274 37.5056 558.555 35.4371Z" fill="black" fill-opacity="0.05"/>
<path d="M567.472 25.0565C570.058 22.032 569.471 17.3738 568.417 16.3039C566.488 14.3472 562.022 16.2507 559.996 18.5045C557.336 21.4633 556.987 25.4479 559.051 27.2571C561.115 29.0663 564.886 28.081 567.472 25.0565Z" fill="black" fill-opacity="0.05"/>
<path d="M565.058 33.634C562.422 35.5096 561.001 38.2566 562.154 40.1856C563.307 42.1143 566.477 42.3087 569.234 40.6191C571.991 38.9298 572.914 35.4082 572.138 34.0678C571.012 32.1223 566.788 32.4037 565.058 33.634Z" fill="black" fill-opacity="0.05"/>
<path d="M498.298 10.6064C499.65 9.67317 499.712 7.27749 498.33 5.33201C497.277 3.85001 494.748 2.4068 493.468 3.43721C492.767 4.00066 492.103 6.73188 493.436 8.71162C494.77 10.6914 496.947 11.5397 498.298 10.6064Z" fill="black" fill-opacity="0.05"/>
<path d="M494.295 13.984C493.348 13.1315 490.854 12.6705 490.052 13.7502C489.499 14.494 489.81 16.6537 491.335 17.8509C492.862 19.048 494.761 19.1525 495.579 18.0847C496.396 17.0172 495.737 15.2836 494.295 13.984Z" fill="black" fill-opacity="0.05"/>
<path d="M509.915 14.3415C508.709 14.0734 507.653 13.3677 506.905 12.3726C505.579 10.6103 503.335 9.98215 501.325 10.6889C499.315 11.3957 497.939 13.2968 497.978 15.5114C497.999 16.762 497.602 17.9784 496.82 18.9462C495.983 19.9808 495.039 20.9955 495.642 23.1762C496.386 25.8676 499.396 27.2133 502.004 26.2965C502.738 26.0382 503.375 25.6236 503.891 25.1025C504.45 24.5383 505.117 24.1123 505.841 23.8532C506.566 23.6026 507.351 23.518 508.135 23.6103C508.859 23.6956 509.613 23.6212 510.347 23.3629C512.955 22.446 514.493 19.5016 513.429 16.9224C512.568 14.8326 511.206 14.6281 509.915 14.3415Z" fill="black" fill-opacity="0.05"/>
<path d="M503.672 8.70341C505.304 8.58107 506.484 6.54437 506.309 4.15428C506.134 1.7642 503.933 0.0476579 503.039 0.0487065C501.403 0.0504542 500.313 2.77469 500.401 4.59784C500.518 6.99142 502.041 8.82574 503.672 8.70341Z" fill="black" fill-opacity="0.05"/>
<path d="M510.405 12.8334C511.701 13.1532 513.122 11.8729 513.579 9.97389C514.037 8.07489 512.95 6.18988 512.06 5.9564C510.769 5.6177 509.101 7.55235 508.886 8.8159C508.558 10.7422 509.109 12.5139 510.405 12.8334Z" fill="black" fill-opacity="0.05"/>
<path d="M440.892 30.112C442.351 29.0005 442.298 26.3259 440.658 24.228C439.408 22.6303 436.515 21.1529 435.139 22.3689C434.387 23.0341 433.785 26.1145 435.373 28.2529C436.961 30.391 439.432 31.2235 440.892 30.112Z" fill="black" fill-opacity="0.05"/>
<path d="M433.485 38.5548C435.248 39.8099 437.372 39.8274 438.229 38.5943C439.085 37.3608 438.262 35.4621 436.588 34.0881C435.489 33.1867 432.683 32.8029 431.844 34.0486C431.266 34.9071 431.722 37.2996 433.485 38.5548Z" fill="black" fill-opacity="0.05"/>
<path d="M439.662 39.4893C438.781 40.6872 437.781 41.8675 438.564 44.2681C439.531 47.2307 442.956 48.5743 445.818 47.4156C446.624 47.0891 447.313 46.5939 447.862 45.9857C448.456 45.3272 449.178 44.8172 449.972 44.4907C450.769 44.173 451.639 44.0381 452.518 44.1C453.33 44.1573 454.167 44.0346 454.973 43.7085C457.835 42.5498 459.4 39.1856 458.082 36.3652C457.014 34.08 455.485 33.9234 454.032 33.6707C452.672 33.4344 451.459 32.7028 450.573 31.6319C449.006 29.7357 446.471 29.1527 444.266 30.0457C442.06 30.9388 440.622 33.131 440.778 35.5984C440.866 36.9919 440.486 38.3691 439.662 39.4893Z" fill="black" fill-opacity="0.05"/>
<path d="M446.783 27.7081C448.596 27.4865 449.809 25.1534 449.492 22.497C449.175 19.8409 446.632 18.0412 445.635 18.0891C443.811 18.1765 442.735 21.2715 442.926 23.3002C443.178 25.9633 444.97 27.9297 446.783 27.7081Z" fill="black" fill-opacity="0.05"/>
<path d="M454.498 31.9624C455.96 32.2514 457.48 30.7495 457.893 28.6076C458.305 26.466 456.998 24.4202 455.994 24.2066C454.536 23.8966 452.775 26.1409 452.599 27.5614C452.331 29.7264 453.036 31.6733 454.498 31.9624Z" fill="black" fill-opacity="0.05"/>
<path d="M479.592 106.484C481.983 103.895 483.746 98.4744 481.325 96.3929C480 95.2549 474.611 95.0011 471.388 98.3199C468.166 101.639 467.39 106.157 469.656 108.411C471.92 110.666 476.452 109.883 479.592 106.484Z" fill="black" fill-opacity="0.05"/>
<path d="M453.404 97.7022C451.727 101.097 452.245 104.8 454.563 105.973C456.88 107.146 459.893 105.222 461.795 101.951C463.043 99.8053 462.97 94.8199 460.636 93.6805C459.028 92.8954 455.082 94.3079 453.404 97.7022Z" fill="black" fill-opacity="0.05"/>
<path d="M470.639 114.266C468.552 110.655 464.455 108.716 460.304 109.626C457.959 110.139 455.52 109.832 453.405 108.687C451.143 107.463 448.878 106.026 445.002 108.01C440.219 110.459 438.821 116.77 441.528 121.454C442.291 122.774 443.311 123.847 444.486 124.645C445.758 125.51 446.811 126.637 447.57 127.934C448.316 129.24 448.77 130.721 448.892 132.268C449.004 133.696 449.428 135.122 450.191 136.441C452.899 141.125 459.019 142.982 463.471 139.959C467.078 137.509 466.949 134.807 467.003 132.21C467.053 129.782 467.982 127.479 469.573 125.661C472.39 122.442 472.726 117.877 470.639 114.266Z" fill="black" fill-opacity="0.05"/>
<path d="M481.765 110.21C477.305 111.336 474.427 114.965 475.272 118.065C476.117 121.165 480.394 122.675 484.825 121.436C489.256 120.198 491.657 115.306 491.318 113.582C490.699 110.428 485.163 109.353 481.765 110.21Z" fill="black" fill-opacity="0.05"/>
<path d="M477.017 128.164C473.269 128.257 470.143 129.988 470.031 132.608C469.917 135.229 472.861 137.487 476.607 137.653C480.352 137.819 483.49 135.014 483.593 133.209C483.744 130.591 479.476 128.103 477.017 128.164Z" fill="black" fill-opacity="0.05"/>
<path d="M382.667 105.936C385.651 106.215 388.5 102.905 388.791 98.524C389.012 95.1871 387.104 90.1608 384.108 90.1035C382.469 90.0721 378.382 93.1437 377.984 97.516C377.586 101.888 379.683 105.658 382.667 105.936Z" fill="black" fill-opacity="0.05"/>
<path d="M370.187 113.279C372.571 112.736 373.639 109.509 373.1 105.97C372.747 103.648 369.754 100.049 367.378 100.627C365.74 101.024 363.689 104.442 364.464 107.935C365.24 111.429 367.802 113.821 370.187 113.279Z" fill="black" fill-opacity="0.05"/>
<path d="M384.963 138.18C389.703 139.966 395.269 137.625 396.739 132.725C397.931 128.756 396.243 126.859 394.751 124.929C393.356 123.125 392.678 120.881 392.768 118.591C392.929 114.536 390.483 110.998 386.829 109.62C383.176 108.244 379.039 109.302 376.542 112.475C375.132 114.268 373.169 115.517 370.948 115.959C368.573 116.431 366.072 116.749 364.41 120.541C362.358 125.222 365.057 130.679 369.797 132.465C371.132 132.968 372.51 133.135 373.839 133.009C375.279 132.872 376.712 133.059 378.032 133.547C379.347 134.051 380.552 134.859 381.553 135.916C382.477 136.891 383.627 137.677 384.963 138.18Z" fill="black" fill-opacity="0.05"/>
<path d="M392.443 109.602C394.888 111.356 398.903 109.875 401.41 106.292C403.918 102.71 402.788 97.6849 401.524 96.6293C399.211 94.6992 394.532 97.2592 392.556 99.939C389.961 103.457 389.998 107.847 392.443 109.602Z" fill="black" fill-opacity="0.05"/>
<path d="M397.19 123.391C398.652 125.374 402.135 125.245 404.969 123.103C407.804 120.961 408.442 117.015 407.454 115.634C406.021 113.629 401.436 114.391 399.675 115.921C396.992 118.254 395.728 121.407 397.19 123.391Z" fill="black" fill-opacity="0.05"/>
<path d="M425.146 193.196C427.976 195.482 433.023 194.054 436.187 189.826C438.598 186.606 439.966 180.249 436.978 178.178C435.345 177.046 429.204 177.401 425.937 181.548C422.669 185.695 422.315 190.91 425.146 193.196Z" fill="black" fill-opacity="0.05"/>
<path d="M405.468 182.993C403.961 187.042 404.98 191.178 407.744 192.232C410.507 193.287 413.7 190.745 415.476 186.81C416.641 184.228 415.978 178.584 413.2 177.571C411.286 176.872 406.975 178.944 405.468 182.993Z" fill="black" fill-opacity="0.05"/>
<path d="M426.942 199.717C424.156 195.872 419.286 194.162 414.685 195.689C412.085 196.551 409.285 196.494 406.754 195.447C404.046 194.329 401.312 192.97 397.148 195.682C392.009 199.029 391.158 206.352 394.773 211.34C395.792 212.745 397.072 213.839 398.498 214.605C400.041 215.434 401.366 216.585 402.378 217.966C403.375 219.358 404.063 220.983 404.381 222.722C404.674 224.328 405.321 225.894 406.34 227.299C409.955 232.287 417.109 233.662 421.805 229.703C425.61 226.496 425.149 223.447 424.908 220.497C424.682 217.737 425.468 215.016 427.06 212.765C429.879 208.778 429.729 203.562 426.942 199.717Z" fill="black" fill-opacity="0.05"/>
<path d="M439.075 193.792C434.149 195.601 431.308 200.058 432.627 203.472C433.946 206.886 438.97 208.088 443.851 206.155C448.73 204.223 450.883 198.391 450.298 196.476C449.228 192.973 442.827 192.414 439.075 193.792Z" fill="black" fill-opacity="0.05"/>
<path d="M435.79 214.713C431.551 215.265 428.209 217.601 428.386 220.585C428.562 223.57 432.163 225.779 436.429 225.521C440.695 225.262 443.926 221.707 443.833 219.649C443.699 216.662 438.571 214.351 435.79 214.713Z" fill="black" fill-opacity="0.05"/>
<path d="M385.607 250.119C384.706 250.593 383.379 253.488 384.44 255.987C385.501 258.486 387.743 259.91 389.448 259.168C391.154 258.426 391.738 255.771 390.616 253.3C389.761 251.417 387.254 249.253 385.607 250.119Z" fill="black" fill-opacity="0.05"/>
<path d="M384.254 262.047C383.383 260.889 380.703 259.827 379.578 260.853C378.803 261.56 378.685 264.034 380.128 265.703C381.571 267.372 383.664 267.907 384.804 266.897C385.943 265.888 385.581 263.812 384.254 262.047Z" fill="black" fill-opacity="0.05"/>
<path d="M401.57 265.882C400.283 265.318 399.259 264.3 398.64 263.026C397.542 260.772 395.177 259.578 392.786 259.923C390.396 260.268 388.454 262.082 388.022 264.557C387.778 265.955 387.075 267.222 385.995 268.128C384.841 269.096 383.572 270.019 383.775 272.58C384.026 275.742 387.089 277.903 390.191 277.456C391.064 277.33 391.864 277.008 392.55 276.541C393.293 276.036 394.128 275.708 394.989 275.579C395.851 275.46 396.744 275.538 397.597 275.814C398.384 276.068 399.241 276.151 400.114 276.025C403.215 275.577 405.56 272.636 404.929 269.53C404.418 267.013 402.946 266.486 401.57 265.882Z" fill="black" fill-opacity="0.05"/>
<path d="M395.84 258.231C397.683 258.454 399.435 256.445 399.754 253.744C400.073 251.044 397.99 248.647 396.993 248.452C395.171 248.094 393.372 250.888 393.079 252.938C392.695 255.63 393.997 258.008 395.84 258.231Z" fill="black" fill-opacity="0.05"/>
<path d="M405.778 257.018C404.412 256.356 402.139 258.144 401.628 259.504C400.849 261.577 401.083 263.671 402.457 264.313C403.832 264.955 405.69 263.841 406.607 261.827C407.524 259.812 406.719 257.474 405.778 257.018Z" fill="black" fill-opacity="0.05"/>
<path d="M309.381 287.768C309.811 284.836 306.775 281.843 302.569 281.32C299.366 280.922 294.42 282.535 294.203 285.491C294.084 287.108 296.824 291.311 301.015 291.939C305.207 292.568 308.952 290.701 309.381 287.768Z" fill="black" fill-opacity="0.05"/>
<path d="M308.896 297.208C306.64 297.432 303.011 300.193 303.439 302.572C303.735 304.211 306.916 306.421 310.325 305.843C313.733 305.265 316.176 302.864 315.782 300.479C315.387 298.095 312.335 296.867 308.896 297.208Z" fill="black" fill-opacity="0.05"/>
<path d="M335.953 275.305C332.193 273.915 330.273 275.479 328.334 276.848C326.52 278.129 324.321 278.678 322.119 278.465C318.221 278.088 314.679 280.313 313.156 283.848C311.632 287.382 312.429 291.524 315.353 294.162C317.004 295.652 318.101 297.657 318.407 299.875C318.735 302.246 318.906 304.734 322.47 306.58C326.87 308.859 332.273 306.487 334.25 301.902C334.807 300.61 335.042 299.258 334.992 297.938C334.938 296.509 335.195 295.103 335.737 293.826C336.294 292.555 337.137 291.408 338.209 290.477C339.199 289.617 340.017 288.523 340.575 287.231C342.551 282.646 340.595 277.022 335.953 275.305Z" fill="black" fill-opacity="0.05"/>
<path d="M304.134 277.665C307.384 280.418 311.617 280.618 313.439 278.298C315.262 275.978 314.05 271.932 310.733 269.262C307.417 266.593 302.514 267.438 301.428 268.629C299.444 270.809 301.659 275.569 304.134 277.665Z" fill="black" fill-opacity="0.05"/>
<path d="M326.981 274.35C328.971 273.013 329.034 269.566 327.123 266.651C325.211 263.736 321.444 262.893 320.06 263.794C318.051 265.102 318.538 269.672 319.918 271.493C322.021 274.27 324.991 275.688 326.981 274.35Z" fill="black" fill-opacity="0.05"/>
<path d="M252.341 297.802C254.41 297.724 256.07 295.201 255.885 292.174C255.743 289.869 253.995 286.598 251.938 286.828C250.812 286.954 248.283 289.426 248.394 292.456C248.506 295.487 250.273 297.88 252.341 297.802Z" fill="black" fill-opacity="0.05"/>
<path d="M244.438 303.953C246.024 303.367 246.471 301.06 245.791 298.685C245.345 297.126 242.98 294.931 241.402 295.541C240.316 295.961 239.211 298.486 240.049 300.809C240.887 303.132 242.852 304.54 244.438 303.953Z" fill="black" fill-opacity="0.05"/>
<path d="M262.294 309.721C261.18 308.611 260.518 307.135 260.379 305.558C260.133 302.767 258.146 300.564 255.523 299.949C252.9 299.335 250.16 300.433 248.728 302.831C247.92 304.186 246.686 305.218 245.203 305.721C243.618 306.258 241.933 306.701 241.128 309.448C240.134 312.838 242.461 316.333 245.865 317.129C246.824 317.354 247.782 317.344 248.681 317.138C249.655 316.915 250.653 316.914 251.601 317.13C252.545 317.356 253.442 317.801 254.22 318.434C254.939 319.019 255.795 319.454 256.754 319.678C260.157 320.475 263.764 318.369 264.341 314.882C264.807 312.056 263.485 310.909 262.294 309.721Z" fill="black" fill-opacity="0.05"/>
<path d="M259.363 299.431C261.191 300.412 263.811 299.036 265.214 296.356C266.616 293.677 265.402 290.337 264.443 289.728C262.689 288.614 259.71 290.789 258.591 292.802C257.123 295.445 257.534 298.449 259.363 299.431Z" fill="black" fill-opacity="0.05"/>
<path d="M264.878 303.107C263.244 304.947 262.657 307.22 263.832 308.447C265.008 309.673 267.382 309.271 269.135 307.549C270.888 305.827 270.978 303.067 270.181 302.21C269.023 300.966 265.949 301.901 264.878 303.107Z" fill="black" fill-opacity="0.05"/>
<path d="M201.228 355.454C202.946 355.101 203.99 352.761 203.424 350.257C202.994 348.351 201.089 345.861 199.401 346.34C198.478 346.601 196.699 349.019 197.204 351.536C197.708 354.052 199.51 355.807 201.228 355.454Z" fill="black" fill-opacity="0.05"/>
<path d="M195.462 361.692C196.707 360.982 196.768 358.992 195.877 357.101C195.293 355.861 193.019 354.356 191.783 355.084C190.932 355.587 190.352 357.85 191.367 359.675C192.383 361.5 194.216 362.403 195.462 361.692Z" fill="black" fill-opacity="0.05"/>
<path d="M211.157 364.03C210.076 363.257 209.323 362.116 208.992 360.818C208.407 358.519 206.449 356.954 204.173 356.806C201.898 356.658 199.757 357.956 198.886 360.159C198.395 361.404 197.503 362.438 196.332 363.064C195.081 363.734 193.732 364.339 193.432 366.746C193.062 369.718 195.481 372.314 198.434 372.506C199.265 372.56 200.064 372.419 200.788 372.122C201.571 371.8 202.405 371.66 203.226 371.709C204.047 371.767 204.856 372.014 205.592 372.435C206.272 372.824 207.047 373.067 207.879 373.121C210.831 373.314 213.559 371.053 213.568 368.058C213.575 365.631 212.314 364.857 211.157 364.03Z" fill="black" fill-opacity="0.05"/>
<path d="M207.326 355.837C208.987 356.403 210.99 354.888 211.799 352.454C212.607 350.019 211.139 347.397 210.255 347.022C208.638 346.335 206.443 348.567 205.782 350.405C204.914 352.818 205.665 355.271 207.326 355.837Z" fill="black" fill-opacity="0.05"/>
<path d="M212.428 358.144C211.313 359.908 211.13 361.89 212.279 362.752C213.427 363.613 215.357 362.947 216.589 361.264C217.82 359.581 217.521 357.261 216.738 356.656C215.601 355.778 213.16 356.987 212.428 358.144Z" fill="black" fill-opacity="0.05"/>
<path d="M166.057 292.453C168.18 290.224 169.79 285.514 167.703 283.663C166.561 282.651 161.858 282.357 159 285.213C156.141 288.068 155.404 292.004 157.353 294.003C159.302 296.002 163.269 295.38 166.057 292.453Z" fill="black" fill-opacity="0.05"/>
<path d="M144.205 291.671C146.213 292.727 148.87 291.087 150.574 288.255C151.692 286.398 151.694 282.043 149.671 281.016C148.277 280.309 144.811 281.489 143.302 284.431C141.792 287.374 142.197 290.615 144.205 291.671Z" fill="black" fill-opacity="0.05"/>
<path d="M158.142 299.13C156.367 295.949 152.815 294.2 149.177 294.938C147.122 295.355 144.997 295.054 143.164 294.026C141.204 292.926 139.245 291.64 135.834 293.321C131.624 295.396 130.32 300.89 132.623 305.017C133.272 306.18 134.149 307.13 135.164 307.844C136.264 308.616 137.169 309.614 137.815 310.758C138.449 311.908 138.827 313.208 138.913 314.561C138.992 315.81 139.344 317.061 139.993 318.223C142.296 322.351 147.617 324.055 151.545 321.474C154.727 319.384 154.65 317.021 154.731 314.754C154.806 312.634 155.649 310.635 157.062 309.069C159.565 306.295 159.918 302.312 158.142 299.13Z" fill="black" fill-opacity="0.05"/>
<path d="M167.9 295.736C163.99 296.66 161.429 299.791 162.126 302.509C162.823 305.228 166.539 306.604 170.425 305.582C174.312 304.561 176.473 300.32 176.199 298.809C175.7 296.046 170.878 295.033 167.9 295.736Z" fill="black" fill-opacity="0.05"/>
<path d="M163.531 311.354C160.256 311.384 157.504 312.854 157.37 315.141C157.237 317.428 159.779 319.441 163.048 319.636C166.317 319.831 169.094 317.423 169.209 315.849C169.374 313.564 165.679 311.333 163.531 311.354Z" fill="black" fill-opacity="0.05"/>
<path d="M105.619 298.675C107.223 299.803 109.888 298.851 111.442 296.461C112.626 294.64 113.137 291.17 111.456 290.164C110.536 289.614 107.244 290.027 105.633 292.378C104.021 294.728 104.015 297.548 105.619 298.675Z" fill="black" fill-opacity="0.05"/>
<path d="M96.217 298.788C97.7419 299.255 99.3704 297.772 100.187 295.59C100.723 294.158 100.166 291.144 98.6354 290.7C97.5803 290.393 95.3336 291.665 94.6662 293.898C93.9982 296.132 94.6928 298.321 96.217 298.788Z" fill="black" fill-opacity="0.05"/>
<path d="M100.07 300.396C98.7023 300.955 97.1933 301.025 95.7934 300.554C94.2968 300.05 92.7774 299.418 90.6321 301.028C87.9848 303.016 87.786 306.988 89.9082 309.541C90.5061 310.26 91.2342 310.803 92.0279 311.163C92.8879 311.553 93.6415 312.125 94.2353 312.831C94.8209 313.544 95.2486 314.394 95.4813 315.318C95.696 316.172 96.0993 316.991 96.6972 317.71C98.8194 320.264 102.718 320.744 105.105 318.444C107.04 316.58 106.684 314.955 106.45 313.376C106.231 311.899 106.557 310.406 107.335 309.137C108.711 306.889 108.446 304.087 106.81 302.119C105.174 300.152 102.493 299.408 100.07 300.396Z" fill="black" fill-opacity="0.05"/>
<path d="M113.134 298.491C110.547 299.644 109.175 302.145 110.006 303.935C110.836 305.725 113.583 306.189 116.141 304.972C118.699 303.755 119.651 300.538 119.269 299.529C118.569 297.683 115.104 297.614 113.134 298.491Z" fill="black" fill-opacity="0.05"/>
<path d="M112.104 309.87C109.842 310.321 108.126 311.699 108.327 313.299C108.527 314.899 110.543 315.957 112.83 315.664C115.117 315.37 116.729 313.339 116.607 312.235C116.429 310.632 113.587 309.575 112.104 309.87Z" fill="black" fill-opacity="0.05"/>
<path d="M24.1917 324.333C26.4157 325.624 28.9328 325.408 29.8135 323.853C30.6942 322.297 29.6364 319.933 27.3816 318.699C25.6644 317.758 22.5269 317.562 21.7605 319.179C21.3414 320.063 21.9683 323.042 24.1917 324.333Z" fill="black" fill-opacity="0.05"/>
<path d="M27.4883 329.061C26.1681 328.683 23.5223 329.427 23.245 330.863C23.0538 331.852 24.3643 333.808 26.4102 334.244C28.456 334.68 30.3555 333.873 30.6534 332.442C30.9507 331.011 29.5 329.638 27.4883 329.061Z" fill="black" fill-opacity="0.05"/>
<path d="M42.8675 321.936C41.567 322.252 40.2085 322.07 39.0151 321.459C36.9012 320.375 34.4213 320.838 32.7929 322.488C31.1644 324.138 30.7104 326.649 31.7817 328.788C32.3865 329.996 32.5678 331.371 32.2571 332.688C31.9243 334.097 31.4792 335.537 33.0839 337.373C35.0652 339.639 38.6253 339.511 40.7385 337.37C41.3333 336.766 41.7607 336.058 42.02 335.303C42.301 334.486 42.7522 333.752 43.3364 333.154C43.9267 332.562 44.6517 332.104 45.4585 331.819C46.2032 331.556 46.903 331.122 47.4985 330.52C49.6114 328.379 49.735 324.774 47.4951 322.77C45.6805 321.146 44.2588 321.598 42.8675 321.936Z" fill="black" fill-opacity="0.05"/>
<path d="M29.5098 311.296C27.9169 312.08 28.1265 315.256 29.0641 316.99C30.2949 319.266 32.6349 320.325 34.1667 319.425C35.6992 318.526 35.8988 315.976 34.6124 313.732C33.3268 311.487 30.3809 310.867 29.5098 311.296Z" fill="black" fill-opacity="0.05"/>
<path d="M41.0583 312.736C39.6418 313.024 38.9196 315.706 39.2997 317.04C39.8794 319.074 41.2437 320.536 42.6554 320.228C44.0671 319.919 44.8546 317.992 44.4133 315.923C43.9728 313.854 42.034 312.537 41.0583 312.736Z" fill="black" fill-opacity="0.05"/>
<path d="M17.7771 207.158C20.5811 206.229 21.8781 202.111 20.4499 198.037C19.3614 194.934 15.6977 191.148 12.9676 192.281C11.4751 192.901 8.967 197.294 10.2955 201.402C11.6229 205.51 14.9731 208.088 17.7771 207.158Z" fill="black" fill-opacity="0.05"/>
<path d="M9.347 218.726C11.2921 217.292 11.011 213.954 9.15816 210.969C7.94224 209.011 3.84947 206.943 1.92512 208.405C0.598728 209.412 0.0639572 213.312 2.11328 216.162C4.16329 219.013 7.4016 220.16 9.347 218.726Z" fill="black" fill-opacity="0.05"/>
<path d="M28.346 234.686C29.5577 235.202 30.9004 235.456 32.3013 235.383C37.2738 235.121 41.399 230.803 40.8369 225.794C40.3816 221.736 38.1244 220.69 36.0319 219.536C34.0745 218.458 32.5955 216.698 31.7935 214.593C30.3728 210.866 26.7969 208.637 22.9637 208.838C19.1309 209.039 15.8022 211.632 14.7702 215.488C14.1878 217.666 12.896 219.571 11.06 220.849C9.09629 222.216 6.95894 223.493 6.92028 227.577C6.87367 232.618 11.4187 236.481 16.3911 236.219C17.7924 236.145 19.1016 235.752 20.2543 235.111C21.5023 234.418 22.8695 234.02 24.2508 233.939C25.6327 233.874 27.0341 234.127 28.346 234.686Z" fill="black" fill-opacity="0.05"/>
<path d="M28.0356 206.597C30.9221 207.215 33.9781 204.287 34.8616 200.058C35.7447 195.829 32.7843 191.735 31.2342 191.282C28.3998 190.453 25.1601 194.617 24.4082 197.821C23.4212 202.026 25.1491 205.979 28.0356 206.597Z" fill="black" fill-opacity="0.05"/>
<path d="M37.6455 217.178C39.7321 218.392 42.8292 216.897 44.5637 213.84C46.2982 210.783 45.3515 206.964 43.926 206.108C41.8567 204.864 38.0077 207.366 37.0072 209.446C35.483 212.616 35.5589 215.965 37.6455 217.178Z" fill="black" fill-opacity="0.05"/>
</svg>
