<svg width="1440" height="150" viewBox="0 0 1440 150" fill="none" xmlns="http://www.w3.org/2000/svg">
<g clip-path="url(#clip0_10_2821)">
<path d="M0 67L30 72.3C60 78 120 88 180 101.7C240 115 300 131 360 139C420 147 480 147 540 141.7C600 136 660 126 720 115C780 104 840 94 900 99C960 104 1020 126 1080 123C1140 120 1200 94 1260 80.3C1320 67 1380 67 1440 56.3C1500 46 1560 24 1620 24.3C1680 24 1740 46 1800 53.7C1860 62 1920 56 1980 48.3C2040 40 2100 30 2160 37.7C2220 46 2280 72 2340 85.7C2400 99 2460 99 2520 99C2580 99 2640 99 2700 99C2760 99 2820 99 2880 85.7C2940 72 3000 46 3060 32.3C3120 19 3180 19 3240 37.7C3300 56 3360 94 3420 104.3C3480 115 3540 99 3600 80.3C3660 62 3720 40 3780 40.3C3840 40 3900 62 3960 59C4020 56 4080 30 4140 37.7C4200 46 4260 88 4290 109.7L4320 131V163H4290C4260 163 4200 163 4140 163C4080 163 4020 163 3960 163C3900 163 3840 163 3780 163C3720 163 3660 163 3600 163C3540 163 3480 163 3420 163C3360 163 3300 163 3240 163C3180 163 3120 163 3060 163C3000 163 2940 163 2880 163C2820 163 2760 163 2700 163C2640 163 2580 163 2520 163C2460 163 2400 163 2340 163C2280 163 2220 163 2160 163C2100 163 2040 163 1980 163C1920 163 1860 163 1800 163C1740 163 1680 163 1620 163C1560 163 1500 163 1440 163C1380 163 1320 163 1260 163C1200 163 1140 163 1080 163C1020 163 960 163 900 163C840 163 780 163 720 163C660 163 600 163 540 163C480 163 420 163 360 163C300 163 240 163 180 163C120 163 60 163 30 163H0L0 67Z" fill="#FFF9EA"/>
</g>
<defs>
<clipPath id="clip0_10_2821">
<rect width="1440" height="160" fill="white"/>
</clipPath>
</defs>
</svg>
