<svg width="1439" height="160" viewBox="0 0 1439 160" fill="none" xmlns="http://www.w3.org/2000/svg">
<g clip-path="url(#clip0_6_122)">
<path d="M-1 66.9999L29 72.2999C59 77.9999 119 87.9999 179 101.7C239 115 299 131 359 139C419 147 479 147 539 141.7C599 136 659 126 719 115C779 104 839 93.9999 899 98.9999C959 104 1019 126 1079 123C1139 120 1199 93.9999 1259 80.2999C1319 66.9999 1379 66.9999 1439 56.2999C1499 45.9999 1559 23.9999 1619 24.2999C1679 23.9999 1739 45.9999 1799 53.6999C1859 61.9999 1919 55.9999 1979 48.2999C2039 39.9999 2099 29.9999 2159 37.6999C2219 45.9999 2279 71.9999 2339 85.6999C2399 98.9999 2459 98.9999 2519 98.9999C2579 98.9999 2639 98.9999 2699 98.9999C2759 98.9999 2819 98.9999 2879 85.6999C2939 71.9999 2999 45.9999 3059 32.2999C3119 18.9999 3179 18.9999 3239 37.6999C3299 55.9999 3359 93.9999 3419 104.3C3479 115 3539 98.9999 3599 80.2999C3659 61.9999 3719 39.9999 3779 40.2999C3839 39.9999 3899 61.9999 3959 58.9999C4019 55.9999 4079 29.9999 4139 37.6999C4199 45.9999 4259 87.9999 4289 109.7L4319 131V163H4289C4259 163 4199 163 4139 163C4079 163 4019 163 3959 163C3899 163 3839 163 3779 163C3719 163 3659 163 3599 163C3539 163 3479 163 3419 163C3359 163 3299 163 3239 163C3179 163 3119 163 3059 163C2999 163 2939 163 2879 163C2819 163 2759 163 2699 163C2639 163 2579 163 2519 163C2459 163 2399 163 2339 163C2279 163 2219 163 2159 163C2099 163 2039 163 1979 163C1919 163 1859 163 1799 163C1739 163 1679 163 1619 163C1559 163 1499 163 1439 163C1379 163 1319 163 1259 163C1199 163 1139 163 1079 163C1019 163 959 163 899 163C839 163 779 163 719 163C659 163 599 163 539 163C479 163 419 163 359 163C299 163 239 163 179 163C119 163 59 163 29 163H-1L-1 66.9999Z" fill="#FBA81F"/>
</g>
<defs>
<clipPath id="clip0_6_122">
<rect width="1440" height="160" fill="white" transform="translate(-1)"/>
</clipPath>
</defs>
</svg>
